<svg width="580" height="400" xmlns="http://www.w3.org/2000/svg">
 <!-- Created with Method Draw - http://github.com/duopixel/Method-Draw/ -->

 <g>
  <title>background</title>
  <rect fill="#fff" id="canvas_background" height="402" width="582" y="-1" x="-1"/>
  <g display="none" overflow="visible" y="0" x="0" height="100%" width="100%" id="canvasGrid">
   <rect fill="url(#gridpattern)" stroke-width="0" y="0" x="0" height="100%" width="100%"/>
  </g>
 </g>
 <g>
  <title>Layer 1</title>
  <g transform="rotate(-180 289,199.99999999999997) " stroke="null" id="svg_7">
   <path stroke="null" id="svg_5" d="m303.207643,202.848313c1.017253,0 1.831055,0.813802 1.831055,1.831055l0,9.969075c0,1.017253 -0.813802,1.831055 -1.831055,1.831055l-28.347437,0c-1.017253,0 -1.898871,-0.813802 -1.898871,-1.831055l0,-9.969075c0,-1.017253 0.881619,-1.831055 1.898871,-1.831055s1.831055,0.813802 1.831055,1.831055l0,8.070203l24.685328,0l0,-8.070203c0,-1.017253 0.813802,-1.831055 1.831055,-1.831055z" fill="#DBDCDD"/>
   <path stroke="null" id="svg_6" d="m282.862592,194.099941c-0.745985,0.745985 -1.831055,0.745985 -2.57704,0s-0.745985,-1.831055 0,-2.57704l7.459852,-7.459852c0.339084,-0.339084 0.813802,-0.542535 1.28852,-0.542535s0.949436,0.203451 1.28852,0.542535l7.459852,7.459852c0.745985,0.745985 0.745985,1.831055 0,2.57704c-0.339084,0.339084 -0.813802,0.542535 -1.28852,0.542535s-1.017253,-0.203451 -1.356337,-0.542535l-4.272461,-4.272461l0,15.869139c0,1.017253 -0.813802,1.831055 -1.831055,1.831055s-1.831055,-0.813802 -1.831055,-1.831055l0,-15.869139l-4.340277,4.272461z" fill="#DBDCDD"/>
  </g>
 </g>
</svg>